<?xml version="1.0" encoding="UTF-8"?>
<svg xmlns="http://www.w3.org/2000/svg" xmlns:xlink="http://www.w3.org/1999/xlink" width="51pt" height="50pt" viewBox="0 0 51 50" version="1.1">
<g id="surface1">
<path style="fill:none;stroke-width:336;stroke-linecap:butt;stroke-linejoin:miter;stroke:rgb(0%,0%,0%);stroke-opacity:1;stroke-miterlimit:4;" d="M 4163.897059 5382.139063 C 4163.897059 6024.992188 3642.745098 6546.007813 3000 6546.007813 C 2357.254902 6546.007813 1836.102941 6024.992188 1836.102941 5382.139063 C 1836.102941 4739.285938 2357.254902 4218.003125 3000 4218.003125 C 3642.745098 4218.003125 4163.897059 4739.285938 4163.897059 5382.139063 Z M 4163.897059 5382.139063 " transform="matrix(0.0144886,0,0,-0.0146199,-17.965909,108.143275)"/>
<path style="fill:none;stroke-width:168;stroke-linecap:butt;stroke-linejoin:miter;stroke:rgb(100%,100%,100%);stroke-opacity:1;stroke-miterlimit:4;" d="M 4163.897059 5382.139063 C 4163.897059 6024.992188 3642.745098 6546.007813 3000 6546.007813 C 2357.254902 6546.007813 1836.102941 6024.992188 1836.102941 5382.139063 C 1836.102941 4739.285938 2357.254902 4218.003125 3000 4218.003125 C 3642.745098 4218.003125 4163.897059 4739.285938 4163.897059 5382.139063 Z M 4163.897059 5382.139063 " transform="matrix(0.0144886,0,0,-0.0146199,-17.965909,108.143275)"/>
<path style="fill:none;stroke-width:336;stroke-linecap:butt;stroke-linejoin:miter;stroke:rgb(0%,0%,0%);stroke-opacity:1;stroke-miterlimit:4;" d="M 4512.769608 4399.957813 C 4455.882353 5193.771875 3795.612745 5808.570313 3000 5808.570313 C 2204.387255 5808.570313 1544.117647 5193.771875 1487.230392 4399.957813 M 1393.137255 4562.942188 C 1599.656863 4462.479688 1826.397059 4410.378125 2055.833333 4410.378125 C 2893.504902 4410.378125 3572.647059 5089.56875 3572.647059 5927.201563 C 3572.647059 6430.582813 3322.720588 6901.1 2905.906863 7183.25 M 3094.093137 7183.25 C 2677.279412 6901.1 2427.352941 6430.582813 2427.352941 5927.201563 C 2427.352941 5089.56875 3106.495098 4410.378125 3944.166667 4410.378125 C 4173.602941 4410.378125 4400.343137 4462.479688 4606.862745 4562.942188 " transform="matrix(0.0144886,0,0,-0.0146199,-17.965909,108.143275)"/>
<path style="fill:none;stroke-width:168;stroke-linecap:butt;stroke-linejoin:miter;stroke:rgb(100%,100%,100%);stroke-opacity:1;stroke-miterlimit:4;" d="M 4507.916667 4454.196875 C 4424.877451 5224.498438 3774.852941 5808.570313 3000 5808.570313 C 2225.147059 5808.570313 1575.122549 5224.498438 1492.083333 4454.196875 M 1442.47549 4539.964063 C 1635.784314 4454.73125 1844.730392 4410.378125 2055.833333 4410.378125 C 2893.504902 4410.378125 3572.647059 5089.56875 3572.647059 5927.201563 C 3572.647059 6411.345313 3341.323529 6866.365625 2950.392157 7151.721875 M 3049.607843 7151.721875 C 2658.676471 6866.365625 2427.352941 6411.345313 2427.352941 5927.201563 C 2427.352941 5089.56875 3106.495098 4410.378125 3944.166667 4410.378125 C 4155.269608 4410.378125 4364.215686 4454.73125 4557.52451 4539.964063 " transform="matrix(0.0144886,0,0,-0.0146199,-17.965909,108.143275)"/>
<path style="fill:none;stroke-width:336;stroke-linecap:butt;stroke-linejoin:miter;stroke:rgb(0%,0%,0%);stroke-opacity:1;stroke-miterlimit:4;" d="M 2581.838235 5749.789063 C 2488.553922 5723.070313 2397.965686 5687.267188 2311.421569 5643.18125 M 3527.352941 5560.353125 C 3551.078431 5654.403125 3565.367647 5750.857813 3570.490196 5847.846875 M 2890.539216 4836.275 C 2960.367647 4768.676563 3036.666667 4708.025 3118.088235 4655.121875 M 3778.897059 6247.025 C 3616.862745 6392.909375 3416.813725 6490.432813 3202.205882 6528.373438 M 1861.446078 5623.94375 C 1844.460784 5544.589063 1836.102941 5463.364063 1836.102941 5382.139063 C 1836.102941 5246.140625 1859.828431 5111.478125 1906.20098 4984.029688 M 3359.656863 4274.914062 C 3567.254902 4342.5125 3751.397059 4466.754688 3891.593137 4633.746875 " transform="matrix(0.0144886,0,0,-0.0146199,-17.965909,108.143275)"/>
<path style="fill:none;stroke-width:168;stroke-linecap:butt;stroke-linejoin:miter;stroke:rgb(100%,100%,100%);stroke-opacity:1;stroke-miterlimit:4;" d="M 2607.45098 5756.735938 C 2496.642157 5727.078125 2389.338235 5684.8625 2287.965686 5630.890625 M 3520.882353 5534.703125 C 3550.539216 5645.585938 3567.52451 5759.407813 3571.568627 5874.298438 M 2871.666667 4854.710938 C 2952.818627 4773.485938 3043.137255 4701.879688 3140.465686 4640.960938 M 3808.553922 6219.2375 C 3631.691176 6390.2375 3405.490196 6500.585938 3162.034314 6534.785938 M 1870.612745 5663.754688 C 1847.696078 5571.575 1836.102941 5476.990625 1836.102941 5382.139063 C 1836.102941 5232.514063 1864.681373 5084.492188 1920.759804 4946.089063 M 3320.833333 4263.157813 C 3557.009804 4331.023438 3765.955882 4471.83125 3917.205882 4665.542188 " transform="matrix(0.0144886,0,0,-0.0146199,-17.965909,108.143275)"/>
</g>
</svg>
