<svg xmlns="http://www.w3.org/2000/svg" width="32" height="32" viewBox="0 0 32 32">
  <g id="gitHub_icon" transform="translate(-320 -768)">
    <g id="gitCat" transform="translate(280.051 776.235)">
      <g id="Group_1" data-name="Group 1" transform="translate(47.949 0)">
        <path id="Path_7" data-name="Path 7" d="M63.817,6.71a7.373,7.373,0,0,0,.132-1.25,3.872,3.872,0,0,0-1.418-3.01A2.8,2.8,0,0,0,62.293.033c-.672-.191-2.337.492-3.247.973a14.946,14.946,0,0,0-5.8.09C51.08-.146,49.933.043,49.933.043a3.013,3.013,0,0,0-.2,2.62,3.186,3.186,0,0,0-1.246,2.606,6.468,6.468,0,0,0,.068.932c.615,2.585,3.176,3.7,5.692,3.892a1.812,1.812,0,0,0-.9,1.17,3.59,3.59,0,0,1-2.177.14c-1.043-.263-1.442-1.914-3-1.679-.338.051-.271.229.022.381a2.707,2.707,0,0,1,1.269,1.21,2.556,2.556,0,0,0,2.587,1.4,9.85,9.85,0,0,0,1.19-.066s.013,1.284.013,1.785c0,.576-.973.738-.973,1.015,0,.11.322.12.581.12.511,0,1.575-.341,1.575-.939,0-.476.01-2.075.01-2.355a.86.86,0,0,1,.41-.807,33.131,33.131,0,0,1-.1,3.705c-.175.515-.491.442-.491.671,0,.342,1.279.084,1.7-.665.328-.585.181-3.789.181-3.789l.342-.006s0,1.467-.008,2.138c-.012.694-.1,1.572.414,1.986.339.272,1.376.751,1.376.314,0-.253-.726-.462-.726-1.148v-3.16c.441,0,.532,1.039.532,1.039l.159,1.93s-.106.7.951,1c.373.1,1.171.133,1.209-.042s-.961-.436-.971-.981c-.005-.332.019-.526.019-1.97s-.242-1.977-1.087-2.4C60.814,9.885,63.358,9.01,63.817,6.71Z" transform="translate(-47.949 0)" fill="#fff"/>
      </g>
    </g>
    <g id="Ellipse_2" data-name="Ellipse 2" transform="translate(320 768)" fill="none" stroke="#fff" stroke-width="2">
      <circle cx="16" cy="16" r="16" stroke="none"/>
      <circle cx="16" cy="16" r="15" fill="none"/>
    </g>
  </g>
</svg>
