<?xml version="1.0" encoding="UTF-8"?>
<svg xmlns="http://www.w3.org/2000/svg" xmlns:xlink="http://www.w3.org/1999/xlink" width="16pt" height="16pt" viewBox="0 0 16 16" version="1.1">
<g id="surface1">
<path style=" stroke:none;fill-rule:nonzero;fill:rgb(100%,100%,100%);fill-opacity:1;" d="M 11.933594 7.472656 C 11.972656 7.265625 11.996094 7.058594 12 6.847656 C 12.003906 6.265625 11.742188 5.710938 11.289062 5.34375 C 11.4375 4.941406 11.394531 4.496094 11.171875 4.132812 C 10.835938 4.039062 10.003906 4.378906 9.546875 4.621094 C 8.589844 4.445312 7.601562 4.460938 6.648438 4.664062 C 5.566406 4.042969 4.992188 4.140625 4.992188 4.140625 C 4.761719 4.539062 4.722656 5.019531 4.890625 5.449219 C 4.488281 5.757812 4.257812 6.242188 4.269531 6.753906 C 4.269531 6.90625 4.28125 7.0625 4.304688 7.21875 C 4.609375 8.511719 5.890625 9.066406 7.148438 9.164062 C 6.921875 9.285156 6.757812 9.5 6.699219 9.75 C 6.351562 9.882812 5.972656 9.910156 5.609375 9.820312 C 5.089844 9.6875 4.890625 8.863281 4.109375 8.980469 C 3.941406 9.003906 3.976562 9.09375 4.121094 9.171875 C 4.394531 9.296875 4.617188 9.507812 4.757812 9.773438 C 4.996094 10.257812 5.515625 10.539062 6.050781 10.476562 C 6.25 10.476562 6.445312 10.464844 6.644531 10.441406 C 6.644531 10.441406 6.652344 11.085938 6.652344 11.335938 C 6.652344 11.621094 6.164062 11.703125 6.164062 11.84375 C 6.164062 11.898438 6.324219 11.902344 6.453125 11.902344 C 6.710938 11.902344 7.242188 11.730469 7.242188 11.433594 C 7.242188 11.195312 7.246094 10.394531 7.246094 10.253906 C 7.234375 10.09375 7.3125 9.9375 7.453125 9.851562 C 7.46875 10.46875 7.453125 11.089844 7.402344 11.703125 C 7.316406 11.960938 7.15625 11.925781 7.15625 12.039062 C 7.15625 12.210938 7.796875 12.082031 8.007812 11.707031 C 8.171875 11.414062 8.097656 9.8125 8.097656 9.8125 L 8.269531 9.808594 C 8.269531 9.808594 8.269531 10.542969 8.265625 10.878906 C 8.257812 11.226562 8.214844 11.664062 8.472656 11.871094 C 8.640625 12.007812 9.160156 12.246094 9.160156 12.027344 C 9.160156 11.902344 8.796875 11.796875 8.796875 11.453125 L 8.796875 9.875 C 9.015625 9.875 9.0625 10.394531 9.0625 10.394531 L 9.140625 11.359375 C 9.140625 11.359375 9.089844 11.710938 9.617188 11.859375 C 9.804688 11.910156 10.203125 11.925781 10.222656 11.839844 C 10.242188 11.75 9.742188 11.621094 9.738281 11.347656 C 9.734375 11.179688 9.746094 11.085938 9.746094 10.363281 C 9.746094 9.640625 9.625 9.375 9.203125 9.164062 C 10.433594 9.058594 11.703125 8.621094 11.933594 7.472656 Z M 11.933594 7.472656 "/>
<path style="fill:none;stroke-width:2;stroke-linecap:butt;stroke-linejoin:miter;stroke:rgb(100%,100%,100%);stroke-opacity:1;stroke-miterlimit:4;" d="M 31 16 C 31 24.28125 24.28125 31 16 31 C 7.71875 31 1 24.28125 1 16 C 1 7.71875 7.71875 1 16 1 C 24.28125 1 31 7.71875 31 16 Z M 31 16 " transform="matrix(0.5,0,0,0.5,0,0)"/>
</g>
</svg>
