<?xml version="1.0" encoding="UTF-8"?>
<svg xmlns="http://www.w3.org/2000/svg" xmlns:xlink="http://www.w3.org/1999/xlink" width="16pt" height="16pt" viewBox="0 0 16 16" version="1.1">
<g id="surface1">
<path style="fill:none;stroke-width:2;stroke-linecap:butt;stroke-linejoin:miter;stroke:rgb(100%,100%,100%);stroke-opacity:1;stroke-miterlimit:4;" d="M 31 16 C 31 24.28125 24.28125 31 16 31 C 7.71875 31 1 24.28125 1 16 C 1 7.71875 7.71875 1 16 1 C 24.28125 1 31 7.71875 31 16 Z M 31 16 " transform="matrix(0.5,0,0,0.5,0,0)"/>
<path style=" stroke:none;fill-rule:nonzero;fill:rgb(100%,100%,100%);fill-opacity:1;" d="M 4.910156 4.5 C 4.597656 4.472656 4.296875 4.625 4.128906 4.890625 C 3.960938 5.15625 3.957031 5.492188 4.117188 5.761719 C 4.277344 6.03125 4.574219 6.191406 4.890625 6.171875 L 4.902344 6.171875 C 5.214844 6.199219 5.519531 6.046875 5.683594 5.78125 C 5.851562 5.511719 5.855469 5.171875 5.691406 4.902344 C 5.527344 4.632812 5.226562 4.476562 4.910156 4.5 Z M 4.910156 4.5 "/>
<path style=" stroke:none;fill-rule:nonzero;fill:rgb(100%,100%,100%);fill-opacity:1;" d="M 4.097656 6.835938 L 5.703125 6.835938 L 5.703125 11.675781 L 4.097656 11.675781 Z M 4.097656 6.835938 "/>
<path style=" stroke:none;fill-rule:nonzero;fill:rgb(100%,100%,100%);fill-opacity:1;" d="M 9.652344 6.722656 C 9.074219 6.769531 8.546875 7.066406 8.203125 7.535156 L 8.203125 6.835938 L 6.59375 6.835938 L 6.59375 11.675781 L 8.203125 11.675781 L 8.203125 8.972656 C 8.195312 8.839844 8.214844 8.707031 8.253906 8.578125 C 8.375 8.226562 8.707031 7.992188 9.078125 7.992188 C 9.660156 7.992188 9.894531 8.433594 9.894531 9.085938 L 9.894531 11.675781 L 11.503906 11.675781 L 11.503906 8.898438 C 11.503906 7.414062 10.710938 6.722656 9.652344 6.722656 Z M 9.652344 6.722656 "/>
</g>
</svg>
